<svg xmlns="http://www.w3.org/2000/svg" viewBox="0 0 800 860">

  <!-- background -->
  <rect width="100%" height="100%" fill="#0d1117"/>

  <!-- ═══════════ CODE RAIN (full height, 800px width) ═══════════ -->
  <g font-family="'Courier New',monospace" font-size="11">
    <!-- layer 1 -->
    <text x="10" y="-30" fill="#58a6ff" opacity="0.10"><animate attributeName="y" values="-30;890" dur="14s" repeatCount="indefinite" begin="0s"/>const app = express();</text>
    <text x="170" y="-30" fill="#d2a8ff" opacity="0.08"><animate attributeName="y" values="-30;890" dur="18s" repeatCount="indefinite" begin="3s"/>@Injectable()</text>
    <text x="300" y="-30" fill="#58a6ff" opacity="0.12"><animate attributeName="y" values="-30;890" dur="12s" repeatCount="indefinite" begin="1s"/>return await this.repo.find();</text>
    <text x="350" y="-30" fill="#7ee787" opacity="0.07"><animate attributeName="y" values="-30;890" dur="16s" repeatCount="indefinite" begin="5s"/>await redis.set(key, val, 'EX', 3600);</text>
    <text x="520" y="-30" fill="#ff7b72" opacity="0.09"><animate attributeName="y" values="-30;890" dur="13s" repeatCount="indefinite" begin="2s"/>SELECT * FROM orders WHERE</text>
    <text x="80" y="-30" fill="#7ee787" opacity="0.06"><animate attributeName="y" values="-30;890" dur="19s" repeatCount="indefinite" begin="7s"/>kafka.producer.send(record);</text>
    <text x="420" y="-30" fill="#d2a8ff" opacity="0.10"><animate attributeName="y" values="-30;890" dur="11s" repeatCount="indefinite" begin="0.5s"/>@Transactional</text>
    <text x="500" y="-30" fill="#58a6ff" opacity="0.08"><animate attributeName="y" values="-30;890" dur="15s" repeatCount="indefinite" begin="4s"/>consumer.subscribe({ topic });</text>
    <text x="230" y="-30" fill="#ff7b72" opacity="0.11"><animate attributeName="y" values="-30;890" dur="10s" repeatCount="indefinite" begin="6s"/>app.listen(3000, () =&gt; {</text>
    <text x="680" y="-30" fill="#7ee787" opacity="0.07"><animate attributeName="y" values="-30;890" dur="17s" repeatCount="indefinite" begin="1.5s"/>pipe()</text>

    <!-- layer 2 -->
    <text x="40" y="-30" fill="#d2a8ff" opacity="0.06"><animate attributeName="y" values="-30;890" dur="20s" repeatCount="indefinite" begin="8s"/>@GetMapping("/api/v1/users")</text>
    <text x="260" y="-30" fill="#58a6ff" opacity="0.09"><animate attributeName="y" values="-30;890" dur="14s" repeatCount="indefinite" begin="10s"/>return ResponseEntity.ok(body);</text>
    <text x="460" y="-30" fill="#ff7b72" opacity="0.05"><animate attributeName="y" values="-30;890" dur="21s" repeatCount="indefinite" begin="9s"/>CREATE INDEX idx_user ON users;</text>
    <text x="580" y="-30" fill="#7ee787" opacity="0.08"><animate attributeName="y" values="-30;890" dur="16s" repeatCount="indefinite" begin="11s"/>this.cacheManager.get(key);</text>
    <text x="110" y="-30" fill="#58a6ff" opacity="0.07"><animate attributeName="y" values="-30;890" dur="18s" repeatCount="indefinite" begin="12s"/>await queryRunner.connect();</text>
    <text x="340" y="-30" fill="#d2a8ff" opacity="0.10"><animate attributeName="y" values="-30;890" dur="13s" repeatCount="indefinite" begin="3.5s"/>torch.nn.Linear(512, 256)</text>
    <text x="540" y="-30" fill="#ff7b72" opacity="0.06"><animate attributeName="y" values="-30;890" dur="19s" repeatCount="indefinite" begin="13s"/>INSERT INTO events VALUES (?)</text>

    <!-- layer 3 -->
    <text x="20" y="-30" fill="#7ee787" opacity="0.05"><animate attributeName="y" values="-30;890" dur="22s" repeatCount="indefinite" begin="14s"/>@KafkaListener(topics = "order.created")</text>
    <text x="280" y="-30" fill="#d2a8ff" opacity="0.04"><animate attributeName="y" values="-30;890" dur="24s" repeatCount="indefinite" begin="15s"/>CompletableFuture.supplyAsync(() -&gt;</text>
    <text x="480" y="-30" fill="#58a6ff" opacity="0.06"><animate attributeName="y" values="-30;890" dur="20s" repeatCount="indefinite" begin="16s"/>upstream backend { server; }</text>
    <text x="650" y="-30" fill="#ff7b72" opacity="0.05"><animate attributeName="y" values="-30;890" dur="23s" repeatCount="indefinite" begin="17s"/>docker build -t api .</text>
    <text x="130" y="-30" fill="#7ee787" opacity="0.04"><animate attributeName="y" values="-30;890" dur="25s" repeatCount="indefinite" begin="18s"/>stage('Deploy') { sh 'helm' }</text>
    <text x="400" y="-30" fill="#58a6ff" opacity="0.06"><animate attributeName="y" values="-30;890" dur="21s" repeatCount="indefinite" begin="19s"/>SELECT COUNT(*) FROM events</text>
    <text x="600" y="-30" fill="#d2a8ff" opacity="0.05"><animate attributeName="y" values="-30;890" dur="22s" repeatCount="indefinite" begin="20s"/>await this.em.flush();</text>
  </g>

  <!-- ═══════════ HEADER ═══════════ -->
  <text x="400" y="108" text-anchor="middle" font-family="'Segoe UI',system-ui,sans-serif" font-weight="700" font-size="52" fill="#ffffff" opacity="0.95">Geunho Bang</text>
  <text x="400" y="148" text-anchor="middle" font-family="'Segoe UI',system-ui,sans-serif" font-weight="400" font-size="18" fill="#8b949e">Backend Engineer &#xB7; Commerce Platform &#xB7; 3M+ Users</text>

  <!-- divider -->
  <line x1="280" y1="195" x2="520" y2="195" stroke="#30363d" stroke-width="1" opacity="0.5"/>

  <!-- ═══════════ TECH STACK ═══════════ -->

  <!-- LANGUAGES (total=362, start=(800-362)/2=219) -->
  <text x="400" y="240" text-anchor="middle" font-family="'Segoe UI',system-ui,sans-serif" font-size="13" fill="#8b949e" letter-spacing="3" font-weight="600">LANGUAGES</text>
  <g transform="translate(219, 255)">
    <g>
      <rect width="56" height="28" rx="6" fill="#ED8B00"/>
      <svg x="4" y="6" width="16" height="16" viewBox="0 0 24 24">
        <path d="M8.851 18.56s-.917.534.653.714c1.902.218 2.874.187 4.969-.211 0 0 .552.346 1.321.646-4.699 2.013-10.633-.118-6.943-1.149M8.276 15.933s-1.028.761.542.924c2.032.209 3.636.227 6.413-.308 0 0 .384.389.987.602-5.679 1.661-12.007.13-7.942-1.218M13.116 11.475c1.158 1.333-.304 2.533-.304 2.533s2.939-1.518 1.589-3.418c-1.261-1.772-2.228-2.652 3.007-5.688 0-.001-8.216 2.051-4.292 6.573M19.33 20.504s.679.559-.747.991c-2.712.822-11.288 1.069-13.669.033-.856-.373.75-.89 1.254-.998.527-.114.828-.093.828-.093-.953-.671-6.156 1.317-2.643 1.887 9.58 1.553 17.462-.7 14.977-1.82M9.292 13.21s-4.362 1.036-1.544 1.412c1.189.159 3.561.123 5.77-.062 1.806-.152 3.618-.477 3.618-.477s-.637.272-1.098.587c-4.429 1.165-12.986.623-10.522-.568 2.082-1.006 3.776-.892 3.776-.892M17.116 17.584c4.503-2.34 2.421-4.589.968-4.285-.355.074-.515.138-.515.138s.132-.207.385-.297c2.875-1.011 5.086 2.981-.928 4.562 0-.001.07-.062.09-.118M14.401 0s2.494 2.494-2.365 6.33c-3.896 3.077-.888 4.832-.001 6.836-2.274-2.053-3.943-3.858-2.824-5.539 1.644-2.469 6.197-3.665 5.19-7.627M9.734 23.924c4.322.277 10.959-.153 11.116-2.198 0 0-.302.775-3.572 1.391-3.688.694-8.239.613-10.937.168 0-.001.553.457 3.393.639" fill="#fff" opacity="0.95"/>
      </svg>
      <text x="38" y="18" text-anchor="middle" font-family="'Segoe UI',sans-serif" font-size="13" font-weight="500" fill="#fff">Java</text>
    </g>
    <g transform="translate(66,0)">
      <rect width="102" height="28" rx="6" fill="#F7DF1E"/>
      <svg x="4" y="6" width="16" height="16" viewBox="0 0 24 24">
        <path d="M0 0h24v24H0V0zm22.034 18.276c-.175-1.095-.888-2.015-3.003-2.873-.736-.345-1.554-.585-1.797-1.14-.091-.33-.105-.51-.046-.705.15-.646.915-.84 1.515-.66.39.12.75.42.976.9 1.034-.676 1.034-.676 1.755-1.125-.27-.42-.404-.601-.586-.78-.63-.705-1.469-1.065-2.834-1.034l-.705.089c-.676.165-1.32.525-1.71 1.005-1.14 1.291-.811 3.541.569 4.471 1.365 1.02 3.361 1.244 3.616 2.205.24 1.17-.87 1.545-1.966 1.41-.811-.18-1.26-.586-1.755-1.336l-1.83 1.051c.21.48.45.689.81 1.109 1.74 1.756 6.09 1.666 6.871-1.004.029-.09.24-.705.074-1.65l.046.067zm-8.983-7.245h-2.248c0 1.938-.009 3.864-.009 5.805 0 1.232.063 2.363-.138 2.711-.33.689-1.18.601-1.566.48-.396-.196-.597-.466-.83-.855-.063-.105-.11-.196-.127-.196l-1.825 1.125c.305.63.75 1.172 1.324 1.517.855.51 2.004.675 3.207.405.783-.226 1.458-.691 1.811-1.411.51-.93.402-2.07.397-3.346.012-2.054 0-4.109 0-6.179l.004-.056z" fill="#000" opacity="0.95"/>
      </svg>
      <text x="71" y="18" text-anchor="middle" font-family="'Segoe UI',sans-serif" font-size="13" font-weight="500" fill="#000">JavaScript</text>
    </g>
    <g transform="translate(178,0)">
      <rect width="102" height="28" rx="6" fill="#3178C6"/>
      <svg x="4" y="6" width="16" height="16" viewBox="0 0 24 24">
        <path d="M1.125 0C.502 0 0 .502 0 1.125v21.75C0 23.498.502 24 1.125 24h21.75c.623 0 1.125-.502 1.125-1.125V1.125C24 .502 23.498 0 22.875 0zm17.363 9.75c.612 0 1.154.037 1.627.111a6.38 6.38 0 0 1 1.306.34v2.458a3.95 3.95 0 0 0-.643-.361 5.093 5.093 0 0 0-.717-.26 5.453 5.453 0 0 0-1.426-.2c-.3 0-.573.028-.819.086a2.1 2.1 0 0 0-.623.242c-.17.104-.3.229-.393.374a.888.888 0 0 0-.14.49c0 .196.053.373.156.529.104.156.252.304.443.444s.423.276.696.41c.273.135.582.274.926.416.47.197.892.407 1.266.628.374.222.695.473.963.753.268.279.472.598.614.957.142.359.214.776.214 1.253 0 .657-.125 1.21-.373 1.656a3.033 3.033 0 0 1-1.012 1.085 4.38 4.38 0 0 1-1.487.596c-.566.12-1.163.18-1.79.18a9.916 9.916 0 0 1-1.84-.164 5.544 5.544 0 0 1-1.512-.493v-2.63a5.033 5.033 0 0 0 3.237 1.2c.333 0 .624-.03.872-.09.249-.06.456-.144.623-.25.166-.108.29-.234.373-.38a1.023 1.023 0 0 0-.074-1.089 2.12 2.12 0 0 0-.537-.5 5.597 5.597 0 0 0-.807-.444 27.72 27.72 0 0 0-1.007-.436c-.918-.383-1.602-.852-2.053-1.405-.45-.553-.676-1.222-.676-2.005 0-.614.123-1.141.369-1.582.246-.441.58-.804 1.004-1.089a4.494 4.494 0 0 1 1.47-.629 7.536 7.536 0 0 1 1.77-.201zm-15.113.188h9.563v2.166H9.506v9.646H6.789v-9.646H3.375z" fill="#fff" opacity="0.95"/>
      </svg>
      <text x="71" y="18" text-anchor="middle" font-family="'Segoe UI',sans-serif" font-size="13" font-weight="500" fill="#fff">TypeScript</text>
    </g>
    <g transform="translate(290,0)">
      <rect width="72" height="28" rx="6" fill="#3776AB"/>
      <svg x="4" y="6" width="16" height="16" viewBox="0 0 24 24">
        <path d="M14.25.18l.9.2.73.26.59.3.45.32.34.34.25.34.16.33.1.3.04.26.02.2-.01.13V8.5l-.05.63-.13.55-.21.46-.26.38-.3.31-.33.25-.35.19-.35.14-.33.1-.3.07-.26.04-.21.02H8.77l-.69.05-.59.14-.5.22-.41.27-.33.32-.27.35-.2.36-.15.37-.1.35-.07.32-.04.27-.02.21v3.06H3.17l-.21-.03-.28-.07-.32-.12-.35-.18-.36-.26-.36-.36-.35-.46-.32-.59-.28-.73-.21-.88-.14-1.05-.05-1.23.06-1.22.16-1.04.24-.87.32-.71.36-.57.4-.44.42-.33.42-.24.4-.16.36-.1.32-.05.24-.01h.16l.06.01h8.16v-.83H6.18l-.01-2.75-.02-.37.05-.34.11-.31.17-.28.25-.26.31-.23.38-.2.44-.18.51-.15.58-.12.64-.1.71-.06.77-.04.84-.02 1.27.05zm-6.3 1.98l-.23.33-.08.41.08.41.23.34.33.22.41.09.41-.09.33-.22.23-.34.08-.41-.08-.41-.23-.33-.33-.22-.41-.09-.41.09zm13.09 3.95l.28.06.32.12.35.18.36.27.36.35.35.47.32.59.28.73.21.88.14 1.04.05 1.23-.06 1.23-.16 1.04-.24.86-.32.71-.36.57-.4.45-.42.33-.42.24-.4.16-.36.09-.32.05-.24.02-.16-.01h-8.22v.82h5.84l.01 2.76.02.36-.05.34-.11.31-.17.29-.25.25-.31.24-.38.2-.44.17-.51.15-.58.13-.64.09-.71.07-.77.04-.84.01-1.27-.04-1.07-.14-.9-.2-.73-.25-.59-.3-.45-.33-.34-.34-.25-.34-.16-.33-.1-.3-.04-.25-.02-.2.01-.13v-5.34l.05-.64.13-.54.21-.46.26-.38.3-.32.33-.24.35-.2.35-.14.33-.1.3-.06.26-.04.21-.02.13-.01h5.84l.69-.05.59-.14.5-.21.41-.28.33-.32.27-.35.2-.36.15-.36.1-.35.07-.32.04-.28.02-.21V6.07h2.09l.14.01zm-6.47 14.25l-.23.33-.08.41.08.41.23.33.33.23.41.08.41-.08.33-.23.23-.33.08-.41-.08-.41-.23-.33-.33-.23-.41-.08-.41.08z" fill="#fff" opacity="0.95"/>
      </svg>
      <text x="56" y="18" text-anchor="middle" font-family="'Segoe UI',sans-serif" font-size="13" font-weight="500" fill="#fff">Python</text>
    </g>
  </g>

  <!-- BACKEND (total=244, start=(800-244)/2=278) -->
  <text x="400" y="325" text-anchor="middle" font-family="'Segoe UI',system-ui,sans-serif" font-size="13" fill="#8b949e" letter-spacing="3" font-weight="600">BACKEND</text>
  <g transform="translate(278, 340)">
    <g>
      <rect width="72" height="28" rx="6" fill="#6DB33F"/>
      <svg x="4" y="6" width="16" height="16" viewBox="0 0 24 24">
        <path d="M21.8537 1.4158a.7144.7144 0 0 0-.7256 0L12 6.5832 2.8719 1.4158a.7144.7144 0 0 0-.7256 0 .7127.7127 0 0 0-.3619.6238v13.9206a.7666.7666 0 0 0 .3619.6238l9.1281 5.1674a.7144.7144 0 0 0 .7256 0l9.1281-5.1674a.7666.7666 0 0 0 .3619-.6238V2.0396a.7127.7127 0 0 0-.3619-.6238zM12 19.4771l-8.0619-4.5658V3.5023L12 8.068v11.4091zm8.4237-4.5658L12 19.4771V8.068l8.4237-4.5657v11.4094z" fill="#fff" opacity="0.95"/>
      </svg>
      <text x="52" y="18" text-anchor="middle" font-family="'Segoe UI',sans-serif" font-size="13" font-weight="500" fill="#fff">Spring</text>
    </g>
    <g transform="translate(82,0)">
      <rect width="72" height="28" rx="6" fill="#E0234E"/>
      <svg x="4" y="6" width="16" height="16" viewBox="0 0 24 24">
        <path d="M14.131.047c-.173 0-.334.037-.483.087.316.21.49.49.576.806.007.043.019.074.025.117a.681.681 0 0 1 .013.112c.024.545-.143.614-.26.936-.18.415-.13.861.086 1.22a.74.74 0 0 0 .074.104c-.032.142-.068.281-.109.419-.275.919-.779 1.638-1.481 2.28-.48.439-.988.83-1.508 1.202a9.345 9.345 0 0 0-1.353 1.175c-.261.282-.494.575-.706.887-.131.193-.26.388-.379.593a4.174 4.174 0 0 0-.397.803 4.042 4.042 0 0 0-.263 1.039c-.033.296-.04.595-.046.892a1.62 1.62 0 0 0 .013.213c.024.403.232.732.492.962a.85.85 0 0 0 .456.212c.284.043.577.031.866.012.932-.065 1.78-.406 2.502-.888.578-.386 1.087-.86 1.532-1.407a9.776 9.776 0 0 0 .958-1.434c.164-.316.303-.641.422-.976.213-.589.355-1.201.427-1.829.017-.15.037-.302.04-.453.003-.114.006-.227 0-.341-.01-.256-.067-.505-.18-.733a1.37 1.37 0 0 0-.439-.549 1.37 1.37 0 0 0-.615-.254 2.296 2.296 0 0 0-.652-.03c-.279.025-.549.1-.807.195a3.736 3.736 0 0 0-.722.368c-.15.098-.3.197-.446.3-.278.197-.548.404-.812.617-.16.129-.318.26-.469.397a.686.686 0 0 0-.063.062c-.006-.012-.006-.025-.006-.038 0-.019.006-.038.006-.056a2.018 2.018 0 0 1 .049-.243c.063-.242.145-.477.245-.703.122-.273.263-.536.422-.788.135-.21.281-.411.433-.607.17-.217.347-.428.533-.631.211-.232.428-.457.656-.671.212-.199.43-.392.659-.572.231-.182.469-.354.716-.513.22-.142.444-.278.678-.398.168-.086.34-.166.513-.236.179-.073.36-.14.548-.193.202-.057.408-.104.617-.134.06-.009.12-.013.18-.02.018-.003.037-.006.055-.006h.018c.011.01.024.01.037.01.108.01.216.023.324.043.345.063.678.16.999.295.117.047.238.097.354.152.106.05.21.105.312.16.197.117.38.244.556.387.19.154.367.32.527.497.346.38.614.813.794 1.295.04.11.076.219.11.328.035.146.064.291.08.438.023.183.029.367.023.551a.972.972 0 0 1-.027.15c-.051.21-.184.367-.377.456a.877.877 0 0 1-.234.065 1.385 1.385 0 0 1-.241.018 1.11 1.11 0 0 1-.215-.025 1.156 1.156 0 0 1-.21-.063c-.178-.068-.349-.148-.517-.235a3.915 3.915 0 0 1-.466-.26 4.266 4.266 0 0 1-.435-.32 4.314 4.314 0 0 1-.374-.362 4.26 4.26 0 0 1-.292-.355 3.34 3.34 0 0 1-.202-.334 2.452 2.452 0 0 1-.127-.316 1.664 1.664 0 0 1-.073-.29c-.014-.104-.02-.21-.02-.316 0-.072.003-.144.009-.216.012-.14.035-.278.067-.414.057-.247.14-.486.25-.715.12-.25.262-.488.423-.712.156-.217.33-.422.518-.613.19-.195.393-.378.607-.547.21-.166.428-.32.654-.46.226-.14.461-.26.704-.362.228-.095.462-.177.703-.238.226-.057.456-.097.688-.118a2.71 2.71 0 0 1 .384-.015c.173 0 .345.012.516.038.16.024.316.058.47.104.15.045.295.102.436.168.133.062.262.132.386.212.116.074.227.156.332.246.1.086.195.178.282.277.083.093.16.19.23.293.067.098.128.201.182.308.052.102.098.207.138.316.04.105.073.213.101.322.027.105.049.212.064.32.014.103.023.207.026.312.003.1.003.2.003.3 0 .1-.003.2-.01.3-.006.098-.016.195-.03.292a2.9 2.9 0 0 1-.064.296 3.085 3.085 0 0 1-.096.293 3.466 3.466 0 0 1-.125.288 3.765 3.765 0 0 1-.154.28c-.058.094-.12.186-.187.276-.065.087-.135.172-.207.254-.074.084-.152.164-.234.24a2.692 2.692 0 0 1-.26.223c-.09.073-.184.142-.28.208a3.08 3.08 0 0 1-.302.176c-.104.057-.211.11-.32.158a3.448 3.448 0 0 1-.338.129c-.115.04-.232.075-.35.105a3.54 3.54 0 0 1-.362.071c-.121.019-.243.032-.366.038a3.396 3.396 0 0 1-.372.006 3.596 3.596 0 0 1-.372-.032c-.061-.008-.122-.018-.183-.03-.062-.012-.123-.025-.184-.041-.061-.016-.122-.034-.182-.054-.061-.02-.121-.042-.181-.067-.06-.024-.12-.051-.178-.08-.059-.028-.117-.058-.174-.09-.057-.031-.113-.064-.169-.1a2.102 2.102 0 0 1-.161-.116 1.896 1.896 0 0 1-.15-.131 1.725 1.725 0 0 1-.138-.146 1.55 1.55 0 0 1-.126-.16 1.402 1.402 0 0 1-.112-.175c-.033-.058-.065-.118-.094-.179a1.163 1.163 0 0 1-.075-.187 1.006 1.006 0 0 1-.055-.195.85.85 0 0 1-.035-.2.708.708 0 0 1-.013-.202c.003-.067.01-.134.02-.2.013-.066.028-.132.047-.197.02-.064.043-.127.069-.189.027-.061.056-.121.088-.18.033-.058.068-.114.106-.169.039-.054.08-.107.123-.158.044-.05.09-.098.138-.144.048-.046.098-.09.15-.132.051-.041.104-.08.159-.117.054-.036.11-.07.167-.102.057-.031.115-.06.175-.087.059-.026.119-.05.18-.073.061-.022.122-.042.184-.06.062-.017.124-.032.187-.045.062-.013.125-.023.188-.032.063-.008.126-.014.189-.018.063-.004.126-.006.189-.006.063 0 .126.002.189.006.063.004.126.01.189.018.063.009.126.019.188.032.062.013.125.028.187.045.062.018.123.038.184.06.061.023.121.047.18.073.06.027.118.056.175.087.057.032.113.066.167.102.055.037.108.076.159.117.052.042.102.086.15.132.048.046.094.094.138.144.043.051.084.104.123.158.038.055.073.111.106.169.032.059.061.119.088.18.026.062.049.125.069.189.019.065.034.131.047.197.01.066.017.133.02.2.004.067.006.134.004.201a.85.85 0 0 1-.035.2 1.006 1.006 0 0 1-.055.195c-.024.064-.05.126-.075.187-.029.061-.061.121-.094.179-.037.057-.074.113-.112.175a1.402 1.402 0 0 1-.126.16 1.55 1.55 0 0 1-.138.146 1.725 1.725 0 0 1-.15.131c-.052.042-.106.082-.161.116-.056.036-.112.069-.169.1-.057.032-.115.062-.174.09-.058.029-.118.056-.178.08-.06.025-.12.047-.181.067-.06.02-.121.038-.182.054-.061.016-.122.029-.184.041-.061.012-.122.022-.183.03a3.596 3.596 0 0 1-.372.032 3.396 3.396 0 0 1-.372-.006c-.123-.006-.245-.019-.366-.038a3.54 3.54 0 0 1-.362-.071c-.118-.03-.235-.067-.35-.105a3.448 3.448 0 0 1-.338-.129 3.08 3.08 0 0 1-.32-.158 3.08 3.08 0 0 1-.302-.176c-.096-.066-.19-.135-.28-.208a2.692 2.692 0 0 1-.26-.223 2.385 2.385 0 0 1-.234-.24c-.072-.082-.142-.167-.207-.254-.067-.09-.129-.182-.187-.276a3.765 3.765 0 0 1-.154-.28 3.466 3.466 0 0 1-.125-.288 3.085 3.085 0 0 1-.096-.293 2.9 2.9 0 0 1-.064-.296c-.014-.097-.024-.194-.03-.292-.007-.1-.01-.2-.01-.3 0-.1 0-.2.003-.3.003-.105.012-.209.026-.312.015-.108.037-.215.064-.32.028-.109.061-.217.101-.322.04-.109.086-.214.138-.316.054-.107.115-.21.182-.308.07-.103.147-.2.23-.293.087-.099.182-.191.282-.277.105-.09.216-.172.332-.246.124-.08.253-.15.386-.212.141-.066.286-.123.436-.168.154-.046.31-.08.47-.104.171-.026.343-.038.516-.038a2.71 2.71 0 0 1 .384.015z" fill="#fff" opacity="0.95"/>
      </svg>
      <text x="52" y="18" text-anchor="middle" font-family="'Segoe UI',sans-serif" font-size="13" font-weight="500" fill="#fff">NestJS</text>
    </g>
    <g transform="translate(164,0)">
      <rect width="80" height="28" rx="6" fill="#353535"/>
      <svg x="4" y="6" width="16" height="16" viewBox="0 0 24 24">
        <path d="M24 18.588a1.529 1.529 0 0 1-1.895-.72l-3.45-4.771-.5-.667-4.003 5.444a1.466 1.466 0 0 1-1.802.708l5.158-6.92-4.798-6.251a1.595 1.595 0 0 1 1.9.666l3.576 4.83 3.596-4.81a1.435 1.435 0 0 1 1.788-.668L21.708 7.9l-2.522 3.283a.666.666 0 0 0 0 .994l4.804 6.412zM.002 11.576l.42-2.075c1.154-4.103 5.858-5.81 9.094-3.27 1.895 1.489 2.368 3.597 2.275 5.973H1.116C.943 16.447 4.005 19.009 7.92 17.7a4.078 4.078 0 0 0 2.582-2.876c.207-.666.548-.78 1.174-.588a5.417 5.417 0 0 1-2.589 3.957 6.272 6.272 0 0 1-7.306-.933 6.575 6.575 0 0 1-1.64-3.858c0-.235-.08-.455-.134-.666A88.33 88.33 0 0 1 0 11.577zm1.127-.286h9.654c-.06-3.076-2.001-5.258-4.59-5.278-2.882-.04-4.944 2.094-5.071 5.264z" fill="#fff" opacity="0.95"/>
      </svg>
      <text x="60" y="18" text-anchor="middle" font-family="'Segoe UI',sans-serif" font-size="13" font-weight="500" fill="#fff">Express</text>
    </g>
  </g>

  <!-- INFRASTRUCTURE row1 (total=284, start=(800-284)/2=258) -->
  <text x="400" y="410" text-anchor="middle" font-family="'Segoe UI',system-ui,sans-serif" font-size="13" fill="#8b949e" letter-spacing="3" font-weight="600">INFRASTRUCTURE</text>
  <g transform="translate(258, 425)">
    <g><rect width="52" height="28" rx="6" fill="#FF9900"/><text x="26" y="18" text-anchor="middle" font-family="'Segoe UI',sans-serif" font-size="13" font-weight="500" fill="#000">AWS</text></g>
    <g transform="translate(62,0)"><rect width="72" height="28" rx="6" fill="#2496ED"/><text x="36" y="18" text-anchor="middle" font-family="'Segoe UI',sans-serif" font-size="13" font-weight="500" fill="#fff">Docker</text></g>
    <g transform="translate(144,0)"><rect width="140" height="28" rx="6" fill="#2088FF"/><text x="70" y="18" text-anchor="middle" font-family="'Segoe UI',sans-serif" font-size="13" font-weight="500" fill="#fff">GitHub Actions</text></g>
  </g>
  <!-- INFRASTRUCTURE row2 (total=220, start=(800-220)/2=290) -->
  <g transform="translate(290, 463)">
    <g><rect width="72" height="28" rx="6" fill="#FC6D26"/><text x="36" y="18" text-anchor="middle" font-family="'Segoe UI',sans-serif" font-size="13" font-weight="500" fill="#fff">GitLab</text></g>
    <g transform="translate(82,0)"><rect width="64" height="28" rx="6" fill="#FCC624"/><text x="32" y="18" text-anchor="middle" font-family="'Segoe UI',sans-serif" font-size="13" font-weight="500" fill="#000">Linux</text></g>
    <g transform="translate(156,0)"><rect width="64" height="28" rx="6" fill="#009639"/><text x="32" y="18" text-anchor="middle" font-family="'Segoe UI',sans-serif" font-size="13" font-weight="500" fill="#fff">nginx</text></g>
  </g>

  <!-- DATA (total=306, start=(800-306)/2=247) -->
  <text x="400" y="535" text-anchor="middle" font-family="'Segoe UI',system-ui,sans-serif" font-size="13" fill="#8b949e" letter-spacing="3" font-weight="600">DATA</text>
  <g transform="translate(247, 550)">
    <g><rect width="68" height="28" rx="6" fill="#4479A1"/><text x="34" y="18" text-anchor="middle" font-family="'Segoe UI',sans-serif" font-size="13" font-weight="500" fill="#fff">MySQL</text></g>
    <g transform="translate(78,0)"><rect width="64" height="28" rx="6" fill="#DC382D"/><text x="32" y="18" text-anchor="middle" font-family="'Segoe UI',sans-serif" font-size="13" font-weight="500" fill="#fff">Redis</text></g>
    <g transform="translate(152,0)"><rect width="64" height="28" rx="6" fill="#231F20"/><text x="32" y="18" text-anchor="middle" font-family="'Segoe UI',sans-serif" font-size="13" font-weight="500" fill="#fff">Kafka</text></g>
    <g transform="translate(226,0)"><rect width="80" height="28" rx="6" fill="#EE4C2C"/><text x="40" y="18" text-anchor="middle" font-family="'Segoe UI',sans-serif" font-size="13" font-weight="500" fill="#fff">PyTorch</text></g>
  </g>

  <!-- FRONTEND (total=204, start=(800-204)/2=298) -->
  <text x="400" y="620" text-anchor="middle" font-family="'Segoe UI',system-ui,sans-serif" font-size="13" fill="#8b949e" letter-spacing="3" font-weight="600">FRONTEND</text>
  <g transform="translate(298, 635)">
    <g><rect width="64" height="28" rx="6" fill="#61DAFB"/><text x="32" y="18" text-anchor="middle" font-family="'Segoe UI',sans-serif" font-size="13" font-weight="500" fill="#000">React</text></g>
    <g transform="translate(74,0)"><rect width="72" height="28" rx="6" fill="#0769AD"/><text x="36" y="18" text-anchor="middle" font-family="'Segoe UI',sans-serif" font-size="13" font-weight="500" fill="#fff">jQuery</text></g>
    <g transform="translate(156,0)"><rect width="48" height="28" rx="6" fill="#1572B6"/><text x="24" y="18" text-anchor="middle" font-family="'Segoe UI',sans-serif" font-size="13" font-weight="500" fill="#fff">CSS</text></g>
  </g>

  <!-- ═══════════ FEATURED PROJECTS ═══════════ -->
  <line x1="240" y1="695" x2="560" y2="695" stroke="#30363d" stroke-width="1" opacity="0.5"/>
  <text x="400" y="725" text-anchor="middle" font-family="'Segoe UI',system-ui,sans-serif" font-size="13" fill="#8b949e" letter-spacing="3" font-weight="600">FEATURED PROJECTS</text>

  <!-- row 1 (cards: 260+20+260=540, start=(800-540)/2=130) -->
  <g transform="translate(130, 742)">
    <rect width="260" height="38" rx="8" fill="#161b22" stroke="#30363d" stroke-width="1"/>
    <text x="14" y="17" font-family="'Segoe UI',sans-serif" font-size="12" font-weight="600" fill="#58a6ff">CDC-Kafka-Debezium</text>
    <text x="246" y="17" text-anchor="end" font-family="'Segoe UI',sans-serif" font-size="11" fill="#7ee787">&#9733; 6</text>
    <text x="14" y="31" font-family="'Segoe UI',sans-serif" font-size="10" fill="#8b949e">CDC pipeline with Kafka &amp; Debezium</text>
    <g transform="translate(280,0)">
      <rect width="260" height="38" rx="8" fill="#161b22" stroke="#30363d" stroke-width="1"/>
      <text x="14" y="17" font-family="'Segoe UI',sans-serif" font-size="12" font-weight="600" fill="#58a6ff">concurrent-handler-lock</text>
      <text x="14" y="31" font-family="'Segoe UI',sans-serif" font-size="10" fill="#8b949e">Concurrency with Redis/DB Lock</text>
    </g>
  </g>

  <!-- row 2 -->
  <g transform="translate(130, 790)">
    <rect width="260" height="38" rx="8" fill="#161b22" stroke="#30363d" stroke-width="1"/>
    <text x="14" y="17" font-family="'Segoe UI',sans-serif" font-size="12" font-weight="600" fill="#58a6ff">terraform-ecs-example</text>
    <text x="14" y="31" font-family="'Segoe UI',sans-serif" font-size="10" fill="#8b949e">Infrastructure as Code with Terraform</text>
    <g transform="translate(280,0)">
      <rect width="260" height="38" rx="8" fill="#161b22" stroke="#30363d" stroke-width="1"/>
      <text x="14" y="17" font-family="'Segoe UI',sans-serif" font-size="12" font-weight="600" fill="#58a6ff">Spring-Boot-MSA</text>
      <text x="246" y="17" text-anchor="end" font-family="'Segoe UI',sans-serif" font-size="11" fill="#7ee787">&#9733; 1</text>
      <text x="14" y="31" font-family="'Segoe UI',sans-serif" font-size="10" fill="#8b949e">MSA with Grafana, Zipkin, Prometheus</text>
    </g>
  </g>

  <!-- ═══════════ BOTTOM WAVE ═══════════ -->
  <path fill="#161b22" opacity="0.4">
    <animate attributeName="d" dur="12s" repeatCount="indefinite" values="
      M0,835 C133,820 267,850 400,835 C533,820 667,850 800,835 L800,860 L0,860 Z;
      M0,835 C133,850 267,820 400,835 C533,850 667,820 800,835 L800,860 L0,860 Z;
      M0,835 C133,820 267,850 400,835 C533,820 667,850 800,835 L800,860 L0,860 Z
    "/>
  </path>
  <path fill="#0d1117" opacity="0.3">
    <animate attributeName="d" dur="8s" repeatCount="indefinite" values="
      M0,845 C133,855 267,835 400,845 C533,855 667,835 800,845 L800,860 L0,860 Z;
      M0,845 C133,835 267,855 400,845 C533,835 667,855 800,845 L800,860 L0,860 Z;
      M0,845 C133,855 267,835 400,845 C533,855 667,835 800,845 L800,860 L0,860 Z
    "/>
  </path>

</svg>
