<svg width="70" height="22" viewBox="0 0 70 22" fill="none" xmlns="http://www.w3.org/2000/svg">
<g clip-path="url(#clip0_3714_2383)">
<path d="M3.64648 4.03603H8.46462L12.6709 12.831L16.8772 4.03603H21.6954L14.5064 19.1787H10.759L3.64648 4.03603ZM51.1395 4.03603H55.8047V11.4544C55.8047 12.5251 56.1106 13.4429 56.646 14.1312C57.1813 14.8195 57.8696 15.2019 58.6344 15.2019C59.4757 15.2019 60.164 14.8959 60.7758 14.2076C61.3876 13.5193 61.6171 12.6781 61.6171 11.6074V4.03603H66.2822V13.0605C66.2822 14.9724 65.5174 16.5785 64.1408 17.8786C62.6878 19.1787 60.8523 19.7906 58.7109 19.7906C56.4165 19.7906 54.581 19.1787 53.2044 17.8786C51.8278 16.5785 51.1395 14.8959 51.1395 12.7546V4.03603ZM47.851 19.1787H43.1858V10.9191C43.1858 9.84838 42.8799 8.93064 42.3445 8.24234C41.8092 7.55403 41.1209 7.17164 40.3561 7.17164C39.5148 7.17164 38.8265 7.55403 38.2147 8.24234C37.6029 8.93064 37.3734 9.7719 37.3734 10.8426V19.1787H32.7082V9.38951C32.7082 7.47756 33.473 5.87151 34.8496 4.57138C36.3027 3.27125 38.1382 2.65942 40.2796 2.65942C42.5739 2.65942 44.4094 3.27125 45.786 4.57138C47.1627 5.87151 47.851 7.55403 47.851 9.69542V19.1787ZM28.4255 19.1787H23.8368V5.71855C23.8368 5.10673 24.0662 4.57138 24.5251 4.11251C24.9839 3.65364 25.5193 3.42421 26.1311 3.42421C26.7429 3.42421 27.2783 3.65364 27.7372 4.11251C28.196 4.57138 28.4255 5.10673 28.4255 5.71855V19.1787Z" fill="#3BBCD5"/>
</g>
<defs>
<clipPath id="clip0_3714_2383">
<rect width="62.7122" height="17.59" fill="white" transform="translate(3.64453 2.70312)"/>
</clipPath>
</defs>
</svg>
